<mxfile host="app.diagrams.net" modified="2022-09-30T09:15:37.736Z" agent="5.0 (Windows NT 10.0; Win64; x64) AppleWebKit/537.36 (KHTML, like Gecko) Chrome/105.0.0.0 Safari/537.36" etag="BM2m8gB5ETv__2pdLUo0" version="20.3.6" type="github">
  <diagram id="BBG8nRCEOLiLZT4-zJTU" name="第 1 页">
    <mxGraphModel dx="3437" dy="1857" grid="0" gridSize="10" guides="1" tooltips="1" connect="1" arrows="1" fold="1" page="1" pageScale="1" pageWidth="2339" pageHeight="3300" math="0" shadow="0">
      <root>
        <mxCell id="0" />
        <mxCell id="1" parent="0" />
        <mxCell id="Z-7dat90LtpyJo6IZziy-1" value="" style="rounded=0;whiteSpace=wrap;html=1;" vertex="1" parent="1">
          <mxGeometry x="1794" y="614" width="352" height="976" as="geometry" />
        </mxCell>
        <mxCell id="Z-7dat90LtpyJo6IZziy-2" value="&lt;font style=&quot;font-size: 24px;&quot;&gt;0x8000000&lt;/font&gt;" style="text;html=1;strokeColor=none;fillColor=none;align=center;verticalAlign=middle;whiteSpace=wrap;rounded=0;" vertex="1" parent="1">
          <mxGeometry x="1577" y="586" width="204" height="64" as="geometry" />
        </mxCell>
        <mxCell id="Z-7dat90LtpyJo6IZziy-3" value="&lt;font style=&quot;font-size: 24px;&quot;&gt;0x8100000&lt;/font&gt;" style="text;html=1;strokeColor=none;fillColor=none;align=center;verticalAlign=middle;whiteSpace=wrap;rounded=0;" vertex="1" parent="1">
          <mxGeometry x="1577" y="789" width="204" height="64" as="geometry" />
        </mxCell>
        <mxCell id="Z-7dat90LtpyJo6IZziy-4" value="&lt;font style=&quot;font-size: 24px;&quot;&gt;0x8200000&lt;/font&gt;" style="text;html=1;strokeColor=none;fillColor=none;align=center;verticalAlign=middle;whiteSpace=wrap;rounded=0;" vertex="1" parent="1">
          <mxGeometry x="1577" y="917" width="204" height="64" as="geometry" />
        </mxCell>
        <mxCell id="Z-7dat90LtpyJo6IZziy-5" value="&lt;font style=&quot;font-size: 24px;&quot;&gt;0xc000000&lt;/font&gt;" style="text;html=1;strokeColor=none;fillColor=none;align=center;verticalAlign=middle;whiteSpace=wrap;rounded=0;" vertex="1" parent="1">
          <mxGeometry x="1583" y="1294" width="204" height="64" as="geometry" />
        </mxCell>
        <mxCell id="Z-7dat90LtpyJo6IZziy-6" value="" style="endArrow=none;html=1;rounded=0;fontSize=24;exitX=0.006;exitY=0.216;exitDx=0;exitDy=0;exitPerimeter=0;" edge="1" parent="1" source="Z-7dat90LtpyJo6IZziy-1">
          <mxGeometry width="50" height="50" relative="1" as="geometry">
            <mxPoint x="1952" y="881" as="sourcePoint" />
            <mxPoint x="2146" y="825" as="targetPoint" />
          </mxGeometry>
        </mxCell>
        <mxCell id="Z-7dat90LtpyJo6IZziy-7" value="" style="endArrow=none;html=1;rounded=0;fontSize=24;exitX=0.006;exitY=0.216;exitDx=0;exitDy=0;exitPerimeter=0;" edge="1" parent="1">
          <mxGeometry width="50" height="50" relative="1" as="geometry">
            <mxPoint x="1796.112" y="945.9960000000001" as="sourcePoint" />
            <mxPoint x="2146" y="946.1800000000001" as="targetPoint" />
          </mxGeometry>
        </mxCell>
        <mxCell id="Z-7dat90LtpyJo6IZziy-10" value="" style="endArrow=none;html=1;rounded=0;fontSize=24;exitX=0.006;exitY=0.216;exitDx=0;exitDy=0;exitPerimeter=0;" edge="1" parent="1">
          <mxGeometry width="50" height="50" relative="1" as="geometry">
            <mxPoint x="1795.0520000000001" y="1326.996" as="sourcePoint" />
            <mxPoint x="2144.94" y="1327.18" as="targetPoint" />
          </mxGeometry>
        </mxCell>
        <mxCell id="Z-7dat90LtpyJo6IZziy-13" value="test data" style="rounded=0;whiteSpace=wrap;html=1;fontSize=24;fillColor=#d5e8d4;strokeColor=#82b366;" vertex="1" parent="1">
          <mxGeometry x="1794" y="825" width="352" height="60" as="geometry" />
        </mxCell>
        <mxCell id="Z-7dat90LtpyJo6IZziy-14" value="test instruction" style="rounded=0;whiteSpace=wrap;html=1;fontSize=24;fillColor=#f8cecc;strokeColor=#b85450;" vertex="1" parent="1">
          <mxGeometry x="1794" y="946" width="352" height="60" as="geometry" />
        </mxCell>
        <mxCell id="Z-7dat90LtpyJo6IZziy-15" value="page tables" style="rounded=0;whiteSpace=wrap;html=1;fontSize=24;fillColor=#e1d5e7;strokeColor=#9673a6;" vertex="1" parent="1">
          <mxGeometry x="1794" y="1328" width="352" height="60" as="geometry" />
        </mxCell>
        <mxCell id="Z-7dat90LtpyJo6IZziy-16" value=".text&lt;br&gt;.data" style="rounded=0;whiteSpace=wrap;html=1;fontSize=24;fillColor=#f5f5f5;fontColor=#333333;strokeColor=#666666;" vertex="1" parent="1">
          <mxGeometry x="1794" y="614" width="353" height="209" as="geometry" />
        </mxCell>
        <mxCell id="Z-7dat90LtpyJo6IZziy-17" value="" style="rounded=0;whiteSpace=wrap;html=1;" vertex="1" parent="1">
          <mxGeometry x="610" y="614" width="352" height="976" as="geometry" />
        </mxCell>
        <mxCell id="Z-7dat90LtpyJo6IZziy-18" value="&lt;font style=&quot;font-size: 24px;&quot;&gt;0x8000000&lt;/font&gt;" style="text;html=1;strokeColor=none;fillColor=none;align=center;verticalAlign=middle;whiteSpace=wrap;rounded=0;" vertex="1" parent="1">
          <mxGeometry x="393" y="586" width="204" height="64" as="geometry" />
        </mxCell>
        <mxCell id="Z-7dat90LtpyJo6IZziy-19" value="&lt;font style=&quot;font-size: 24px;&quot;&gt;0x8100000&lt;/font&gt;" style="text;html=1;strokeColor=none;fillColor=none;align=center;verticalAlign=middle;whiteSpace=wrap;rounded=0;" vertex="1" parent="1">
          <mxGeometry x="393" y="789" width="204" height="64" as="geometry" />
        </mxCell>
        <mxCell id="Z-7dat90LtpyJo6IZziy-20" value="&lt;font style=&quot;font-size: 24px;&quot;&gt;0x8200000&lt;/font&gt;" style="text;html=1;strokeColor=none;fillColor=none;align=center;verticalAlign=middle;whiteSpace=wrap;rounded=0;" vertex="1" parent="1">
          <mxGeometry x="393" y="917" width="204" height="64" as="geometry" />
        </mxCell>
        <mxCell id="Z-7dat90LtpyJo6IZziy-21" value="&lt;font style=&quot;font-size: 24px;&quot;&gt;0xc000000&lt;/font&gt;" style="text;html=1;strokeColor=none;fillColor=none;align=center;verticalAlign=middle;whiteSpace=wrap;rounded=0;" vertex="1" parent="1">
          <mxGeometry x="399" y="1294" width="204" height="64" as="geometry" />
        </mxCell>
        <mxCell id="Z-7dat90LtpyJo6IZziy-22" value="" style="endArrow=none;html=1;rounded=0;fontSize=24;exitX=0.006;exitY=0.216;exitDx=0;exitDy=0;exitPerimeter=0;" edge="1" parent="1" source="Z-7dat90LtpyJo6IZziy-17">
          <mxGeometry width="50" height="50" relative="1" as="geometry">
            <mxPoint x="768" y="881" as="sourcePoint" />
            <mxPoint x="962" y="825" as="targetPoint" />
          </mxGeometry>
        </mxCell>
        <mxCell id="Z-7dat90LtpyJo6IZziy-23" value="" style="endArrow=none;html=1;rounded=0;fontSize=24;exitX=0.006;exitY=0.216;exitDx=0;exitDy=0;exitPerimeter=0;" edge="1" parent="1">
          <mxGeometry width="50" height="50" relative="1" as="geometry">
            <mxPoint x="612.1120000000001" y="945.9960000000001" as="sourcePoint" />
            <mxPoint x="962" y="946.1800000000001" as="targetPoint" />
          </mxGeometry>
        </mxCell>
        <mxCell id="Z-7dat90LtpyJo6IZziy-24" value="" style="endArrow=none;html=1;rounded=0;fontSize=24;exitX=0.006;exitY=0.216;exitDx=0;exitDy=0;exitPerimeter=0;" edge="1" parent="1">
          <mxGeometry width="50" height="50" relative="1" as="geometry">
            <mxPoint x="611.0520000000001" y="1326.996" as="sourcePoint" />
            <mxPoint x="960.94" y="1327.18" as="targetPoint" />
          </mxGeometry>
        </mxCell>
        <mxCell id="Z-7dat90LtpyJo6IZziy-25" value="test data" style="rounded=0;whiteSpace=wrap;html=1;fontSize=24;fillColor=#d5e8d4;strokeColor=#82b366;" vertex="1" parent="1">
          <mxGeometry x="610" y="825" width="352" height="60" as="geometry" />
        </mxCell>
        <mxCell id="Z-7dat90LtpyJo6IZziy-26" value="test instruction" style="rounded=0;whiteSpace=wrap;html=1;fontSize=24;fillColor=#f8cecc;strokeColor=#b85450;" vertex="1" parent="1">
          <mxGeometry x="610" y="946" width="352" height="60" as="geometry" />
        </mxCell>
        <mxCell id="Z-7dat90LtpyJo6IZziy-27" value="page tables" style="rounded=0;whiteSpace=wrap;html=1;fontSize=24;fillColor=#e1d5e7;strokeColor=#9673a6;" vertex="1" parent="1">
          <mxGeometry x="610" y="1328" width="352" height="60" as="geometry" />
        </mxCell>
        <mxCell id="Z-7dat90LtpyJo6IZziy-28" value=".text&lt;br&gt;.data" style="rounded=0;whiteSpace=wrap;html=1;fontSize=24;fillColor=#f5f5f5;fontColor=#333333;strokeColor=#666666;" vertex="1" parent="1">
          <mxGeometry x="610" y="614" width="353" height="209" as="geometry" />
        </mxCell>
        <mxCell id="Z-7dat90LtpyJo6IZziy-29" value="" style="rounded=0;whiteSpace=wrap;html=1;fontSize=24;" vertex="1" parent="1">
          <mxGeometry x="610" y="84" width="353" height="530" as="geometry" />
        </mxCell>
        <mxCell id="Z-7dat90LtpyJo6IZziy-30" value="&lt;font style=&quot;font-size: 24px;&quot;&gt;0x0001000&lt;/font&gt;" style="text;html=1;strokeColor=none;fillColor=none;align=center;verticalAlign=middle;whiteSpace=wrap;rounded=0;" vertex="1" parent="1">
          <mxGeometry x="393" y="56" width="204" height="64" as="geometry" />
        </mxCell>
        <mxCell id="Z-7dat90LtpyJo6IZziy-31" value="vdata" style="rounded=0;whiteSpace=wrap;html=1;fontSize=24;fillColor=#fad9d5;strokeColor=#ae4132;" vertex="1" parent="1">
          <mxGeometry x="611" y="84" width="351" height="112" as="geometry" />
        </mxCell>
        <mxCell id="Z-7dat90LtpyJo6IZziy-32" value="vinstr" style="rounded=0;whiteSpace=wrap;html=1;fontSize=24;fillColor=#b0e3e6;strokeColor=#0e8088;" vertex="1" parent="1">
          <mxGeometry x="612" y="196" width="351" height="112" as="geometry" />
        </mxCell>
        <mxCell id="Z-7dat90LtpyJo6IZziy-33" value="&lt;font style=&quot;font-size: 24px;&quot;&gt;0x0011000&lt;/font&gt;" style="text;html=1;strokeColor=none;fillColor=none;align=center;verticalAlign=middle;whiteSpace=wrap;rounded=0;" vertex="1" parent="1">
          <mxGeometry x="399" y="166" width="204" height="64" as="geometry" />
        </mxCell>
        <mxCell id="Z-7dat90LtpyJo6IZziy-36" value="" style="shape=flexArrow;endArrow=classic;html=1;rounded=0;fontSize=24;" edge="1" parent="1">
          <mxGeometry width="50" height="50" relative="1" as="geometry">
            <mxPoint x="1201" y="757" as="sourcePoint" />
            <mxPoint x="1332" y="757" as="targetPoint" />
          </mxGeometry>
        </mxCell>
        <mxCell id="Z-7dat90LtpyJo6IZziy-37" value="" style="shape=flexArrow;endArrow=classic;html=1;rounded=0;fontSize=24;" edge="1" parent="1">
          <mxGeometry width="50" height="50" relative="1" as="geometry">
            <mxPoint x="1204" y="854.17" as="sourcePoint" />
            <mxPoint x="1335" y="854.17" as="targetPoint" />
          </mxGeometry>
        </mxCell>
        <mxCell id="Z-7dat90LtpyJo6IZziy-38" value="" style="shape=flexArrow;endArrow=classic;html=1;rounded=0;fontSize=24;" edge="1" parent="1">
          <mxGeometry width="50" height="50" relative="1" as="geometry">
            <mxPoint x="1204" y="971" as="sourcePoint" />
            <mxPoint x="1335" y="971" as="targetPoint" />
          </mxGeometry>
        </mxCell>
        <mxCell id="Z-7dat90LtpyJo6IZziy-39" value="" style="shape=flexArrow;endArrow=classic;html=1;rounded=0;fontSize=24;" edge="1" parent="1">
          <mxGeometry width="50" height="50" relative="1" as="geometry">
            <mxPoint x="1201" y="1358" as="sourcePoint" />
            <mxPoint x="1332" y="1358" as="targetPoint" />
          </mxGeometry>
        </mxCell>
        <mxCell id="Z-7dat90LtpyJo6IZziy-41" value="" style="shape=flexArrow;endArrow=classic;html=1;rounded=0;fontSize=24;entryX=0;entryY=0.5;entryDx=0;entryDy=0;" edge="1" parent="1" target="Z-7dat90LtpyJo6IZziy-13">
          <mxGeometry width="50" height="50" relative="1" as="geometry">
            <mxPoint x="965" y="136" as="sourcePoint" />
            <mxPoint x="1096" y="136" as="targetPoint" />
          </mxGeometry>
        </mxCell>
        <mxCell id="Z-7dat90LtpyJo6IZziy-43" value="4v -&amp;gt; 1p" style="edgeLabel;html=1;align=center;verticalAlign=middle;resizable=0;points=[];fontSize=24;" vertex="1" connectable="0" parent="Z-7dat90LtpyJo6IZziy-41">
          <mxGeometry x="-0.2409" y="3" relative="1" as="geometry">
            <mxPoint x="42" y="31" as="offset" />
          </mxGeometry>
        </mxCell>
        <mxCell id="Z-7dat90LtpyJo6IZziy-42" value="" style="shape=flexArrow;endArrow=classic;html=1;rounded=0;fontSize=24;entryX=0;entryY=0.5;entryDx=0;entryDy=0;" edge="1" parent="1">
          <mxGeometry width="50" height="50" relative="1" as="geometry">
            <mxPoint x="963" y="254" as="sourcePoint" />
            <mxPoint x="1792" y="973" as="targetPoint" />
          </mxGeometry>
        </mxCell>
        <mxCell id="Z-7dat90LtpyJo6IZziy-44" value="4v -&amp;gt; 1p" style="edgeLabel;html=1;align=center;verticalAlign=middle;resizable=0;points=[];fontSize=24;" vertex="1" connectable="0" parent="1">
          <mxGeometry x="1297.9958290152015" y="547.9970047281388" as="geometry" />
        </mxCell>
      </root>
    </mxGraphModel>
  </diagram>
</mxfile>
